<mxfile host="www.draw.io" modified="2023-08-17T12:53:15.981Z" agent="Mozilla/5.0 (Windows NT 10.0; Win64; x64) AppleWebKit/537.36 (KHTML, like Gecko) Chrome/115.0.0.0 Safari/537.36" etag="oUjEKq5FSsL6hAJj9u31" version="21.6.8" type="device">
  <diagram name="Page-1" id="dTNFTGQdo1zeEZEPLstb">
    <mxGraphModel dx="1120" dy="446" grid="1" gridSize="10" guides="1" tooltips="1" connect="1" arrows="1" fold="1" page="1" pageScale="1" pageWidth="1169" pageHeight="827" math="0" shadow="0">
      <root>
        <mxCell id="0" />
        <mxCell id="1" parent="0" />
        <mxCell id="vQQvX08A-uGZzg7lhHrs-1" value="Cargar un dato" style="rounded=0;whiteSpace=wrap;html=1;" vertex="1" parent="1">
          <mxGeometry x="430" y="70" width="200" height="70" as="geometry" />
        </mxCell>
        <mxCell id="vQQvX08A-uGZzg7lhHrs-2" value="Impimir si es mayor de 18" style="rounded=0;whiteSpace=wrap;html=1;" vertex="1" parent="1">
          <mxGeometry x="710" y="225" width="200" height="70" as="geometry" />
        </mxCell>
        <mxCell id="vQQvX08A-uGZzg7lhHrs-3" value="Impimir si es menor de 18" style="rounded=0;whiteSpace=wrap;html=1;" vertex="1" parent="1">
          <mxGeometry x="430" y="430" width="200" height="70" as="geometry" />
        </mxCell>
        <mxCell id="vQQvX08A-uGZzg7lhHrs-4" value="Evaluar una expresion" style="rhombus;whiteSpace=wrap;html=1;" vertex="1" parent="1">
          <mxGeometry x="482.5" y="200" width="95" height="120" as="geometry" />
        </mxCell>
        <mxCell id="vQQvX08A-uGZzg7lhHrs-5" value="" style="endArrow=classic;html=1;rounded=0;exitX=1;exitY=0.5;exitDx=0;exitDy=0;" edge="1" parent="1" source="vQQvX08A-uGZzg7lhHrs-4">
          <mxGeometry width="50" height="50" relative="1" as="geometry">
            <mxPoint x="550" y="360" as="sourcePoint" />
            <mxPoint x="710" y="260" as="targetPoint" />
          </mxGeometry>
        </mxCell>
        <mxCell id="vQQvX08A-uGZzg7lhHrs-6" value="" style="endArrow=classic;html=1;rounded=0;exitX=0.5;exitY=1;exitDx=0;exitDy=0;" edge="1" parent="1" source="vQQvX08A-uGZzg7lhHrs-4">
          <mxGeometry width="50" height="50" relative="1" as="geometry">
            <mxPoint x="550" y="360" as="sourcePoint" />
            <mxPoint x="530" y="420" as="targetPoint" />
          </mxGeometry>
        </mxCell>
        <mxCell id="vQQvX08A-uGZzg7lhHrs-7" value="" style="endArrow=classic;html=1;rounded=0;exitX=0.5;exitY=1;exitDx=0;exitDy=0;entryX=0.5;entryY=0;entryDx=0;entryDy=0;" edge="1" parent="1" source="vQQvX08A-uGZzg7lhHrs-1" target="vQQvX08A-uGZzg7lhHrs-4">
          <mxGeometry width="50" height="50" relative="1" as="geometry">
            <mxPoint x="550" y="160" as="sourcePoint" />
            <mxPoint x="600" y="110" as="targetPoint" />
          </mxGeometry>
        </mxCell>
      </root>
    </mxGraphModel>
  </diagram>
</mxfile>
